<?xml version="1.0" encoding="UTF-8" standalone="no"?> <svg width="64" height="64" viewBox="0 0 64 64" fill="none" xmlns="http://www.w3.org/2000/svg">
<path d="M47.0008 45.289C46.9074 45.1963 46.7965 45.123 46.6747 45.0732C46.5529 45.0235 46.4224 44.9982 46.2908 44.999C46.0285 45.0001 45.7771 45.1043 45.5908 45.289L45.5208 45.349L42.5208 41.599L39.7308 16.889C39.6391 16.0694 39.3178 15.2923 38.8039 14.6472C38.2901 14.002 37.6045 13.5151 36.8261 13.2424C36.0478 12.9697 35.2082 12.9224 34.4041 13.1057C33.6 13.2891 32.864 13.6958 32.2808 14.279C32.1808 14.389 32.0908 14.509 32.0008 14.629C31.9108 14.509 31.8208 14.389 31.7208 14.279C31.1376 13.6958 30.4016 13.2891 29.5975 13.1057C28.7934 12.9224 27.9538 12.9697 27.1755 13.2424C26.3971 13.5151 25.7115 14.002 25.1977 14.6472C24.6838 15.2923 24.3625 16.0694 24.2708 16.889L21.4408 41.599L18.4408 45.349L18.3708 45.289C18.1834 45.1028 17.93 44.9982 17.6658 44.9982C17.4016 44.9982 17.1482 45.1028 16.9608 45.289L10.2908 51.999C10.1045 52.1864 10 52.4398 10 52.704C10 52.9682 10.1045 53.2216 10.2908 53.409L19.6308 62.749C19.8171 62.9338 20.0685 63.0379 20.3308 63.039C20.4624 63.0398 20.5929 63.0145 20.7147 62.9648C20.8365 62.915 20.9474 62.8417 21.0408 62.749L27.7108 55.999C27.897 55.8116 28.0016 55.5582 28.0016 55.294C28.0016 55.0298 27.897 54.7764 27.7108 54.589L26.2508 53.129L32.0008 47.409L37.7508 53.169L36.2908 54.629C36.1045 54.8164 36 55.0698 36 55.334C36 55.5982 36.1045 55.8516 36.2908 56.039L43.0008 62.709C43.0942 62.8017 43.205 62.875 43.3269 62.9248C43.4487 62.9745 43.5792 62.9998 43.7108 62.999C43.9731 62.9979 44.2245 62.8938 44.4108 62.709L53.7508 53.369C53.937 53.1816 54.0416 52.9282 54.0416 52.664C54.0416 52.3998 53.937 52.1464 53.7508 51.959L47.0008 45.289ZM31.0008 30.999C29.9399 30.999 28.9225 31.4204 28.1724 32.1706C27.4222 32.9207 27.0008 33.9381 27.0008 34.999V43.999H29.0008V34.999C29.0008 34.4686 29.2115 33.9599 29.5866 33.5848C29.9617 33.2097 30.4704 32.999 31.0008 32.999V45.589L24.8408 51.759L19.8408 46.759L23.1608 42.599C23.2808 42.4542 23.354 42.2763 23.3708 42.089L26.2308 17.089C26.3021 16.5076 26.5854 15.9729 27.0264 15.5872C27.4673 15.2016 28.035 14.9922 28.6208 14.999C29.2512 15.0016 29.855 15.2532 30.3008 15.699C30.7466 16.1448 30.9982 16.7486 31.0008 17.379V30.999ZM39.1708 51.749L33.0008 45.589V32.999C33.5312 32.999 34.0399 33.2097 34.415 33.5848C34.7901 33.9599 35.0008 34.4686 35.0008 34.999V43.999H37.0008V34.999C37.0008 33.9381 36.5794 32.9207 35.8292 32.1706C35.0791 31.4204 34.0617 30.999 33.0008 30.999V17.379C33.0034 16.7486 33.255 16.1448 33.7008 15.699C34.1466 15.2532 34.7504 15.0016 35.3808 14.999C35.9662 14.9977 36.5315 15.2122 36.9687 15.6014C37.406 15.9907 37.6844 16.5274 37.7508 17.109L40.6108 42.109C40.6276 42.2963 40.7008 42.4742 40.8208 42.619L44.1408 46.779L39.1708 51.749Z" fill="black"/>
<path d="M33 1H31V11H33V1Z" fill="black"/>
<path d="M53 16H43V18H53V16Z" fill="black"/>
<path d="M21 16H11V18H21V16Z" fill="black"/>
<path d="M46.3758 4.28831L39.3047 11.3594L40.7189 12.7736L47.79 5.70252L46.3758 4.28831Z" fill="black"/>
<path d="M17.715 4.29282L16.3008 5.70703L23.3718 12.7781L24.7861 11.3639L17.715 4.29282Z" fill="black"/>
</svg>
