<?xml version="1.0" encoding="UTF-8"?>
<!DOCTYPE svg PUBLIC "-//W3C//DTD SVG 1.1//EN" "http://www.w3.org/Graphics/SVG/1.1/DTD/svg11.dtd">
<!-- Creator: CorelDRAW X5 -->
<svg xmlns="http://www.w3.org/2000/svg" xml:space="preserve" width="6.72in" height="6.72in" style="shape-rendering:geometricPrecision; text-rendering:geometricPrecision; image-rendering:optimizeQuality; fill-rule:evenodd; clip-rule:evenodd"
viewBox="0 0 6720 6720"
 xmlns:xlink="http://www.w3.org/1999/xlink">
 <defs>
  <style type="text/css">
   <![CDATA[
    .fil1 {fill:none}
    .fil0 {fill:black;fill-rule:nonzero}
   ]]>
  </style>
 </defs>
 <g id="Layer_x0020_1">
  <metadata id="CorelCorpID_0Corel-Layer"/>
  <g id="_378497344">
   <path class="fil0" d="M1493 1328l675 0c44,0 80,36 80,80l0 2510c0,529 271,854 623,994 142,56 297,83 453,82 156,-1 314,-31 460,-89 380,-149 680,-485 680,-988l0 -2510c0,-44 36,-80 80,-80l675 0c44,0 80,36 80,80 0,582 4,932 9,1279 5,368 9,733 9,1246 0,542 -221,1040 -577,1402 -354,360 -842,585 -1380,585 -538,0 -1026,-226 -1380,-587 -357,-363 -578,-863 -578,-1406 0,-488 3,-862 5,-1238 2,-337 5,-678 5,-1282 0,-44 36,-80 80,-80zm595 160l-515 0c0,476 -3,841 -5,1203 -2,331 -5,660 -5,1237 0,499 203,959 531,1294 325,331 772,538 1266,538 494,0 942,-207 1267,-537 328,-333 531,-792 531,-1291 0,-560 -4,-901 -9,-1244 -4,-353 -9,-709 -9,-1201l-515 0 0 2430c0,578 -346,965 -782,1136 -164,64 -340,98 -517,99 -176,2 -352,-29 -513,-93 -409,-163 -724,-537 -724,-1142l0 -2430z"/>
   <path class="fil0" d="M1492 2181c-44,0 -80,36 -80,80 0,44 36,80 80,80l676 0c44,0 80,-36 80,-80 0,-44 -36,-80 -80,-80l-676 0z"/>
   <path class="fil0" d="M4543 2181c-44,0 -80,36 -80,80 0,44 36,80 80,80l676 0c44,0 80,-36 80,-80 0,-44 -36,-80 -80,-80l-676 0z"/>
   <path class="fil0" d="M3608 1737l383 59 -12 79 12 -79c44,7 74,48 67,91 -3,18 -11,34 -23,45l-1160 1160 0 0c-31,31 -82,31 -113,0 -25,-25 -30,-62 -15,-92l393 -947 -406 -31 6 -80 -6 80c-44,-3 -77,-42 -74,-86 2,-20 10,-38 24,-51l1062 -1062 0 0c31,-31 82,-31 113,0 23,23 29,57 18,86l-269 828zm203 193l-317 -49c-5,-1 -11,-2 -16,-3 -42,-14 -65,-59 -51,-101l76 25 -76 -25 197 -605 -705 705 339 26c10,0 19,2 29,6 41,17 60,64 43,105l-74 -31 74 31 -283 681 764 -764z"/>
  </g>
 </g>
 <rect class="fil1" width="6720" height="6720"/>
</svg>
