<?xml version="1.0" encoding="UTF-8" standalone="no"?> <svg id="icon" xmlns="http://www.w3.org/2000/svg" viewBox="0 0 512 512"><title>telescope</title><path d="M178.539,355.171a5.59,5.59,0,0,0-7.452,2.624L115.47,473.875a5.586,5.586,0,1,0,10.076,4.828l55.617-116.08A5.587,5.587,0,0,0,178.539,355.171Z"/><path d="M414.165,176.44l-60.032,18.712-30.776-76.918L395.88,82.388l6.074,15.181a5.587,5.587,0,0,0,10.373-4.152L394.871,49.791l17.041-6.818,2.528,6.319a5.586,5.586,0,0,0,10.374-4.149l-4.6-11.507a5.587,5.587,0,0,0-7.262-3.112L385.534,41.493a5.587,5.587,0,0,0-3.111,7.263l9.293,23.227-77.94,38.523a5.588,5.588,0,0,0-2.711,7.084l28.308,70.749-124.344,44a5.586,5.586,0,1,0,3.727,10.532l14.469-5.12.413,5.981a14.3,14.3,0,0,1-8.977,14.3l-31.333,12.536a18.827,18.827,0,0,1-6.574,1.332c-.12-.006-.238.007-.357.009a19.013,19.013,0,0,1-11.649-3.9,5.586,5.586,0,0,0-6.8,8.865,29.958,29.958,0,0,0,10.2,5.062L86.993,473.892a5.586,5.586,0,1,0,10.092,4.793L190.1,282.81a29.806,29.806,0,0,0,7.376-1.873l16.986-6.8V476.289a5.587,5.587,0,0,0,11.173,0V288.6L324.3,478.861a5.586,5.586,0,0,0,9.917-5.145L227.932,268.753l.879-.352a25.438,25.438,0,0,0,15.973-25.44l-.626-9.081,99.368-35.16,2.151,5.377a5.58,5.58,0,0,0,6.85,3.257l64.963-20.249a5.586,5.586,0,0,0-3.325-10.665Z"/><path d="M246.937,361.607a5.586,5.586,0,0,0-9.893,5.191l58.8,112.086a5.586,5.586,0,0,0,9.893-5.191Z"/><path d="M193.434,299.156a5.586,5.586,0,0,0-5.586,5.586V476.289a5.587,5.587,0,0,0,11.173,0V304.742A5.587,5.587,0,0,0,193.434,299.156Z"/><path d="M191.571,240.636l-1.68.595a5.587,5.587,0,1,0,3.726,10.534l1.68-.595a5.587,5.587,0,1,0-3.726-10.534Z"/><path d="M413.753,112.017a5.586,5.586,0,0,0-3.112,7.262l.787,1.969A5.586,5.586,0,0,0,421.8,117.1l-.787-1.969A5.585,5.585,0,0,0,413.753,112.017Z"/><path d="M432.17,63.526A5.587,5.587,0,1,0,421.8,67.678l48.364,120.878-17.04,6.818-23-57.48a5.586,5.586,0,0,0-10.373,4.151l25.074,62.667a5.585,5.585,0,0,0,7.261,3.111L479.5,196.854a5.588,5.588,0,0,0,3.112-7.263Z"/><path d="M112.434,274.806a5.583,5.583,0,0,0,7.05,3.19l52.469-18.566a5.586,5.586,0,0,0-3.728-10.532l-47.411,16.777-2.2-5.5,0-.012-.006-.01-12.816-32.033,194.658-87.189a5.586,5.586,0,0,0-4.568-10.2L188.989,178.607l-6.906-17.459a5.587,5.587,0,0,0-10.39,4.111l7.089,17.92-16.877,7.559-11.626-29.057,49.43-23.152a5.587,5.587,0,0,0,2.818-7.134l-6.115-15.281a5.586,5.586,0,1,0-10.373,4.151l4.155,10.384-70.367,32.958-10.058-25.136L176.731,97l1.62,4.049A5.586,5.586,0,1,0,188.724,96.9l-4.091-10.226A5.586,5.586,0,0,0,176.505,84L99.9,131.443a5.586,5.586,0,0,0-2.246,6.824l14,34.984a5.585,5.585,0,0,0,7.556,2.983l20.937-9.806L151.7,195.309l-55.376,24.8a5.587,5.587,0,0,0-2.9,7.174l12.738,31.837L59.078,277.961,44.882,264.9,83.3,249.525a5.586,5.586,0,0,0,3.111-7.262L67.519,195.04a5.585,5.585,0,0,0-7.262-3.111L35.186,201.96a5.588,5.588,0,0,0-3.112,7.263l9.156,22.883A5.587,5.587,0,0,0,51.6,227.955l-7.081-17.7,14.7-5.881,14.744,36.85L32.5,257.818a5.586,5.586,0,0,0-1.707,9.3L54.1,288.567a5.591,5.591,0,0,0,5.858,1.076L110.31,269.5Z"/></svg>