<?xml version="1.0" encoding="UTF-8" standalone="no"?> <svg width="64" height="64" viewBox="0 0 64 64" fill="none" xmlns="http://www.w3.org/2000/svg">
<path d="M5 50C6.10457 50 7 49.1046 7 48C7 46.8954 6.10457 46 5 46C3.89543 46 3 46.8954 3 48C3 49.1046 3.89543 50 5 50Z" fill="black"/>
<path d="M41 15C42.1046 15 43 14.1046 43 13C43 11.8954 42.1046 11 41 11C39.8954 11 39 11.8954 39 13C39 14.1046 39.8954 15 41 15Z" fill="black"/>
<path d="M40.466 29.1C37.5725 29.4482 34.8796 30.7574 32.8188 32.8181C30.7579 34.8788 29.4484 37.5716 29.1 40.465C31.8279 39.74 34.3158 38.3071 36.3117 36.3113C38.3076 34.3156 39.7408 31.8278 40.466 29.1V29.1Z" fill="black"/>
<path d="M54.956 41.243C53.1 43.45 50.9 45.834 48.367 48.367C45.834 50.9 43.448 53.103 41.243 54.957C41.496 54.971 41.75 55 42 55C45.4466 54.996 48.7509 53.6251 51.188 51.188C53.6251 48.7509 54.996 45.4466 55 42C55 41.75 54.971 41.5 54.956 41.243Z" fill="black"/>
<path d="M58.973 25.027C58.158 24.211 55.766 21.827 47.318 27.989C48.0581 28.2696 48.7744 28.6094 49.46 29.005C55.054 25.093 56.76 25.65 57.56 26.443C58.376 27.259 58.96 29.043 54.624 35.074C51.8713 38.7915 48.8342 42.2897 45.54 45.537C42.2922 48.831 38.7941 51.8685 35.077 54.622C31.277 57.351 29.169 58.131 27.92 58.131C27.6478 58.1437 27.376 58.0992 27.1221 58.0004C26.8682 57.9015 26.6379 57.7504 26.446 57.557C25.655 56.766 25.095 55.057 29.008 49.457C28.6126 48.7717 28.2728 48.0557 27.992 47.316C21.831 55.761 24.215 58.155 25.03 58.97C25.893 59.832 28.518 62.457 38.216 54.851C41.2797 52.389 44.198 49.7512 46.956 46.951C49.7563 44.1924 52.3941 41.2735 54.856 38.209C62.46 28.516 59.835 25.89 58.973 25.027Z" fill="black"/>
<path d="M47.977 30.46C47.8549 35.0673 45.9702 39.4522 42.7112 42.7112C39.4522 45.9702 35.0673 47.8549 30.46 47.977C30.637 48.316 30.826 48.648 31.032 48.97C31.9394 50.38 33.1097 51.6022 34.479 52.57C37.8912 49.9867 41.1141 47.1625 44.123 44.119C47.1665 41.11 49.9907 37.8871 52.574 34.475C51.6059 33.1065 50.3837 31.937 48.974 31.03C48.651 30.827 48.317 30.637 47.977 30.46Z" fill="black"/>
<path d="M29.336 44.95C29.419 45.301 29.517 45.65 29.627 45.986C29.752 45.986 29.873 46 30 46C34.2419 45.995 38.3087 44.3076 41.3082 41.3081C44.3076 38.3087 45.995 34.2419 46 30C46 29.873 45.989 29.752 45.987 29.627C45.644 29.516 45.295 29.417 44.939 29.333C44.1466 29.1612 43.3403 29.0608 42.53 29.033C41.7722 32.3228 40.1045 35.3331 37.7173 37.7203C35.3301 40.1074 32.3198 41.7752 29.03 42.533C29.0591 43.3462 29.1615 44.1552 29.336 44.95V44.95Z" fill="black"/>
<path d="M7.393 5.471C5.215 3.963 4 3.584 3.565 3.565C3.584 3.999 3.965 5.216 5.471 7.393C5.99803 6.64797 6.64797 5.99803 7.393 5.471V5.471Z" fill="black"/>
<path d="M12 18C12.2 18 12.4 17.989 12.6 17.97C11.466 17.019 10.3 15.96 9.172 14.827C8.044 13.694 6.982 12.533 6.03 11.4C6.011 11.6 6 11.8 6 12C6.00159 13.5908 6.63424 15.116 7.75911 16.2409C8.88399 17.3658 10.4092 17.9984 12 18Z" fill="black"/>
<path d="M18.529 16.607C18.002 17.352 17.352 18.002 16.607 18.529C18.785 20.037 20.001 20.416 20.435 20.435C20.416 20 20.036 18.784 18.529 16.607Z" fill="black"/>
<path d="M18 12C17.9988 10.6697 17.5556 9.3776 16.74 8.32669C15.9245 7.27579 14.7828 6.52571 13.4944 6.19439C12.2061 5.86306 10.8442 5.96927 9.62281 6.49631C8.40142 7.02336 7.38981 7.94136 6.74701 9.10599C7.94124 10.6159 9.22347 12.054 10.587 13.413C11.9458 14.7763 13.3836 16.0585 14.893 17.253C15.8334 16.7354 16.6178 15.975 17.1643 15.051C17.7108 14.1271 17.9994 13.0735 18 12V12Z" fill="black"/>
<path d="M56 8H58V6H60V4H58V2H56V4H54V6H56V8Z" fill="black"/>
<path d="M62 52H60V54H62V52Z" fill="black"/>
<path d="M55 60H53V62H55V60Z" fill="black"/>
<path d="M61 40H59V42H61V40Z" fill="black"/>
<path d="M8 29H6V31H4V33H6V35H8V33H10V31H8V29Z" fill="black"/>
<path d="M17 37H15V39H17V37Z" fill="black"/>
<path d="M28 9H26V11H28V9Z" fill="black"/>
<path d="M32 21H30V23H32V21Z" fill="black"/>
<path d="M39 3H37V5H39V3Z" fill="black"/>
<path d="M21 30H19V32H21V30Z" fill="black"/>
<path d="M13 57H11V59H13V57Z" fill="black"/>
</svg>
